<svg width="22" height="22" fill="none" xmlns="http://www.w3.org/2000/svg"><g clip-path="url(#clip0_123_1142)"><path d="M.688 10.896c.521-.02 1.043-.035 1.565-.06.678-.035 1.359-.074 2.037-.12a13.717 13.717 0 001.643-.21c.588-.111 1.163-.268 1.706-.53 1.204-.582 2.035-1.506 2.513-2.752.221-.577.347-1.178.436-1.788.115-.8.175-1.605.21-2.411.033-.755.062-1.51.093-2.265 0-.025.004-.048.006-.073h.206c.013.343.023.687.041 1.03.044.858.087 1.716.14 2.572.04.62.122 1.238.25 1.846.149.708.373 1.386.761 2 .623.993 1.497 1.67 2.596 2.062.592.21 1.204.33 1.823.414.893.122 1.79.173 2.689.21.49.021.982.04 1.472.06.108.005.213.017.32.019.04 0 .078-.017.117-.025v.268c-.024-.05-.07-.045-.115-.043l-.536.025c-.615.027-1.23.05-1.844.08-.851.043-1.699.105-2.54.25-.718.121-1.417.303-2.066.643-1.132.59-1.914 1.49-2.368 2.678-.22.577-.346 1.178-.435 1.788-.117.8-.175 1.605-.21 2.412l-.097 2.337h-.206c-.02-.58-.037-1.162-.066-1.741a84.16 84.16 0 00-.118-1.915 12.756 12.756 0 00-.307-2.066c-.148-.611-.365-1.195-.699-1.731-.596-.951-1.427-1.613-2.47-2.013-.578-.221-1.178-.349-1.786-.438a23.73 23.73 0 00-2.421-.21l-2.34-.097v-.206z" fill="#AEAFB2"/></g><defs><clipPath id="clip0_123_1142"><path fill="#fff" d="M0 0h22v22H0z"/></clipPath></defs></svg>