<svg width="1295" height="194" fill="none" xmlns="http://www.w3.org/2000/svg"><path opacity=".4" d="M-23 76c20.82 12.11 75.5 134.5 331.132 106.813 83.356-9.028 163.672-49.996 191.73-47.663 28.058 2.333 15.031 17.583-5.344 10.333-20.376-7.251-73.819-42.33-76.158-92.658-2.338-50.33 53.11-45.663 76.158-33.997 23.047 11.665 28.058 31.663 28.392 39.996.334 8.333-13.027 10-11.023-4.333 2.004-14.332 29.06-47.329 60.458-51.995 31.399-4.666 75.156 23.664 51.44 82.326-23.716 58.661-77.827 96.657-92.525 104.323-14.697 7.666-17.369-1.666-4.008-9.665 13.361-8 47.766-26.998 118.245-29.664 70.479-2.667 123.864 15.758 160.331 17.665C1099 182.813 1200.31 79.156 1293.5 52.825" stroke="#E61661" stroke-width="3" stroke-linecap="round"/></svg>