<svg width="21" height="21" fill="none" xmlns="http://www.w3.org/2000/svg"><path d="M6.072 11.596c-.416.816.056 1.206 1.13 1.872.915.565 2.178.771 2.989.854l-.68.654c-.963.917-1.877 1.806-2.517 2.421-.93.892.568 2.323 1.497 1.45l2.517-2.428c.964.927 1.887 1.816 2.517 2.431.93.876 2.427-.542 1.507-1.45l-2.517-2.42-.689-.655c.821-.082 2.065-.301 2.968-.853v-.001c1.075-.67 1.546-1.06 1.137-1.875-.247-.463-.913-.85-1.8-.18 0 0-1.198.917-3.13.917s-3.13-.918-3.13-.918c-.886-.673-1.555-.282-1.8.181z" fill="#AEAFB2"/><path d="M11 11.096c2.354 0 4.277-1.84 4.277-4.106 0-2.275-1.923-4.115-4.278-4.115-2.355 0-4.278 1.84-4.278 4.115 0 2.266 1.923 4.106 4.278 4.106zm0-6.136c1.156 0 2.1.908 2.1 2.03 0 1.113-.944 2.021-2.1 2.021-1.158 0-2.102-.908-2.102-2.02 0-1.124.943-2.031 2.101-2.031z" fill="#AEAFB2"/></svg>