<svg width="19" height="33" fill="none" xmlns="http://www.w3.org/2000/svg"><path d="M9.748.217a8.351 8.351 0 100 16.703 8.351 8.351 0 000-16.703zm0 11.804a3.452 3.452 0 110-6.905 3.452 3.452 0 010 6.905zm2.949 11.545c3.343-.681 5.347-2.265 5.453-2.35a2.27 2.27 0 00-2.842-3.543c-.02.017-2.157 1.656-5.673 1.659-3.516-.003-5.698-1.642-5.719-1.659a2.27 2.27 0 00-2.841 3.543c.107.087 2.194 1.711 5.63 2.376L1.916 28.6a2.27 2.27 0 103.27 3.152l4.45-4.74 4.9 4.77a2.27 2.27 0 103.208-3.213l-5.046-5.002z" fill="#BDBDBD"/></svg>