<svg width="41" height="14" fill="none" xmlns="http://www.w3.org/2000/svg"><g clip-path="url(#clip0_123_1123)" fill-rule="evenodd" clip-rule="evenodd" fill="#AEAFB2"><path d="M17.725 13.044H14.39L16.474.23h3.337l-2.086 12.816zM11.582.23L8.401 9.042l-.376-1.898v.001L6.902 1.384S6.767.229 5.32.229H.061L0 .446s1.608.335 3.49 1.466l2.898 11.132h3.477L15.173.23h-3.591zm22.571 8.281l1.754-4.796.986 4.796h-2.74zm3.672 4.534h3.063L38.218.228h-2.683c-1.239 0-1.54.956-1.54.956l-4.976 11.86h3.477l.696-1.904h4.242l.39 1.903zM29.28 3.311l.476-2.752S28.286 0 26.755 0c-1.656 0-5.588.724-5.588 4.242 0 3.311 4.615 3.353 4.615 5.09 0 1.74-4.14 1.429-5.505.332l-.496 2.877s1.49.724 3.766.724c2.277 0 5.712-1.18 5.712-4.387 0-3.332-4.656-3.643-4.656-5.091 0-1.449 3.249-1.263 4.677-.476z"/></g><defs><clipPath id="clip0_123_1123"><path fill="#fff" d="M0 0h41v14H0z"/></clipPath></defs></svg>