<svg width="29" height="22" fill="none" xmlns="http://www.w3.org/2000/svg"><g clip-path="url(#clip0_123_1105)"><path d="M5.837 21.058v-1.4c0-.538-.326-.888-.887-.888-.28 0-.583.093-.793.397-.164-.257-.397-.397-.747-.397a.754.754 0 00-.654.327v-.28h-.49v2.241h.49v-1.237c0-.397.21-.584.537-.584.327 0 .49.21.49.584v1.237h.49v-1.237c0-.397.234-.584.537-.584.327 0 .49.21.49.584v1.237h.537zm7.261-2.241h-.794v-.677h-.49v.677h-.444v.443h.444v1.028c0 .513.21.817.77.817.21 0 .444-.07.607-.164l-.14-.42a.768.768 0 01-.42.117c-.233 0-.327-.14-.327-.374V19.26h.794v-.443zm4.155-.047c-.28 0-.466.14-.583.327v-.28h-.49v2.241h.49v-1.26c0-.374.163-.584.467-.584.093 0 .21.023.303.046l.14-.466c-.093-.024-.233-.024-.326-.024zm-6.28.234c-.233-.164-.56-.234-.91-.234-.56 0-.934.28-.934.724 0 .373.28.584.77.654l.234.023c.257.047.397.117.397.233 0 .164-.187.28-.514.28a1.29 1.29 0 01-.747-.233l-.233.373c.257.187.607.28.957.28.654 0 1.027-.303 1.027-.723 0-.397-.303-.607-.77-.677l-.234-.023c-.21-.024-.373-.07-.373-.21 0-.164.163-.257.42-.257.28 0 .56.116.7.187l.21-.397zM24 18.77c-.28 0-.467.14-.583.327v-.28h-.49v2.241h.49v-1.26c0-.374.163-.584.467-.584.093 0 .21.023.303.046l.14-.466c-.093-.024-.233-.024-.327-.024zm-6.256 1.167c0 .677.467 1.168 1.19 1.168.327 0 .56-.07.794-.257l-.233-.397a.943.943 0 01-.584.21c-.397 0-.677-.28-.677-.724 0-.42.28-.7.677-.723.21 0 .397.07.584.21l.233-.397c-.233-.187-.467-.257-.794-.257-.723 0-1.19.49-1.19 1.167zm4.529 0v-1.12h-.49v.28a.844.844 0 00-.7-.327c-.631 0-1.121.49-1.121 1.167s.49 1.168 1.12 1.168c.327 0 .56-.117.7-.327v.28h.49v-1.12zm-1.798 0c0-.396.257-.723.677-.723.397 0 .677.303.677.723 0 .397-.28.724-.677.724-.42-.023-.677-.327-.677-.724zm-5.86-1.167c-.653 0-1.12.467-1.12 1.167s.467 1.168 1.144 1.168c.327 0 .653-.094.91-.304l-.233-.35c-.187.14-.42.233-.654.233-.303 0-.607-.14-.677-.537h1.658v-.186c.023-.724-.397-1.19-1.028-1.19zm0 .42c.304 0 .514.187.56.537h-1.167c.047-.303.257-.537.607-.537zm12.164.747V17.93h-.49v1.167a.844.844 0 00-.701-.327c-.63 0-1.12.49-1.12 1.167s.49 1.168 1.12 1.168c.327 0 .56-.117.7-.327v.28h.49v-1.12zm-1.798 0c0-.396.257-.723.677-.723.397 0 .677.303.677.723 0 .397-.28.724-.677.724-.42-.023-.677-.327-.677-.724zm-16.389 0v-1.12h-.49v.28a.844.844 0 00-.7-.327c-.63 0-1.12.49-1.12 1.167s.49 1.168 1.12 1.168c.326 0 .56-.117.7-.327v.28h.49v-1.12zm-1.82 0c0-.396.256-.723.676-.723.397 0 .677.303.677.723 0 .397-.28.724-.677.724-.42-.023-.677-.327-.677-.724z" fill="#AEAFB2"/><path d="M10.81 1.798h7.354V15.01H10.81V1.798z" fill="#7C6E72"/><path d="M11.277 8.404a8.427 8.427 0 013.198-6.606A8.353 8.353 0 009.293 0 8.4 8.4 0 00.888 8.404a8.4 8.4 0 008.405 8.405 8.353 8.353 0 005.182-1.798 8.392 8.392 0 01-3.198-6.607zm16.809 0a8.4 8.4 0 01-8.405 8.405 8.353 8.353 0 01-5.183-1.798 8.356 8.356 0 003.199-6.607 8.427 8.427 0 00-3.198-6.606A8.353 8.353 0 0119.68 0c4.646 0 8.405 3.782 8.405 8.404z" fill="#AEAFB2"/></g><defs><clipPath id="clip0_123_1105"><path fill="#fff" d="M0 0h29v22H0z"/></clipPath></defs></svg>