<svg width="65" height="24" fill="none" xmlns="http://www.w3.org/2000/svg"><g clip-path="url(#clip0_123_1128)" fill="#AEAFB2"><path d="M3.04 16.979C.345 15.353-.15 11.71 2.037 9.63c.642-.61 1.433-.91 2.323-.936.747-.021 1.5-.005 2.252-.005.066 0 .137.027.225.048v13.476h-1.4v-4.979h-.934C3.64 18.877 2.76 20.54 1.887 22.21H.091c1.011-1.808 1.983-3.52 2.95-5.23zm2.363-7.086c-1.5-.246-2.483.267-2.917 1.545-.324.958-.362 1.947-.05 2.915.49 1.519 1.648 1.845 2.967 1.647V9.893zM19.98 23.99v-1.744h-3.944c0 .47-.005.936 0 1.406.006.236-.088.353-.335.353h-.967v-2.871c.176-.123.363-.032.566-.091 1.269-2.45 1.285-5.123 1.28-7.834h3.988v.32c0 2.321.005 4.647-.006 6.968 0 .401.06.653.544.578.044-.005.099.032.176.059v2.663c0 .107-.066.198-.182.198-.362-.006-.725-.006-1.12-.006zm-.89-2.937v-6.732h-.972c-.044 0-.088.005-.148.01-.083 2.327-.248 4.626-1.483 6.733h2.488c.038-.005.071-.01.115-.01zm-6.8-4.337v-3.513h1.423v9.005H12.3V17.91h-2.12v4.294H8.753v-9.01h1.406v3.518c.72.005 1.406.005 2.131.005zm14.847 4.214c.071.3.137.573.203.835-1.477.978-3.998 1.214-4.927-1.337-.741-2.038-.565-4.096.368-6.059.56-1.176 1.648-1.668 2.72-1.332.856.268 1.262.952 1.543 1.717.379 1.048.379 2.14.379 3.268-1.291-.027-2.565.053-3.867-.07.022.984.016 1.957.79 2.695.825.786 1.813.455 2.791.284zm-1.23-4.069c-.017-.807-.044-1.588-.418-2.305-.29-.556-.873-.641-1.225-.16-.554.754-.57 1.647-.637 2.54.775-.102 1.505-.053 2.28-.075zm4.421.663v4.685h-1.423v-9.021h1.406v4.155c.154-.262.242-.39.308-.524.522-1.054 1.05-2.102 1.549-3.166.176-.37.417-.53.824-.498.324.022.648.006 1.049.006l-2.296 4.096c.873 1.631 1.747 3.267 2.647 4.957-.549 0-1.049.016-1.543-.01-.209-.011-.291-.214-.379-.386a1286.77 1286.77 0 00-2.142-4.294zm9.316-3.946c-.22.406-.445.791-.753 1.165-.198-.15-.357-.283-.522-.395-.604-.412-1.142-.31-1.532.294-.412.636-.56 1.364-.643 2.096-.11.92-.099 1.845.149 2.749.384 1.4 1.318 1.909 2.8 1.55.138-.031.281-.063.451-.106.072.272.137.53.214.823a3.126 3.126 0 01-1.84.68c-1.384.063-2.416-.54-2.91-1.846-.803-2.117-.665-4.235.444-6.219.846-1.513 2.417-1.845 3.938-.952.06.032.116.091.204.16z"/><path fill-rule="evenodd" clip-rule="evenodd" d="M61.252 9.422h2.834v13.551H48.004c-1.12 0-1.846-.711-1.846-1.807 0-.927.005-1.853.01-2.78.011-2.223.022-4.446-.032-6.67-.038-1.491.522-2.598 1.675-3.486 1.498-1.148 3-2.291 4.503-3.434l2.253-1.716c.976-.745 1.946-1.493 2.936-2.257L58.571 0v9.401h-.005l-.003 2.584-.003 2.592c0 .14-.014.248-.11.344a.518.518 0 01-.07.058 4108.615 4108.615 0 00-3.636 2.41l-4.136 2.746-.006.004-.788.52c-.44.29-.88.579-1.316.87v.001l-.006.005a.15.15 0 01.014.024.21.21 0 00.014.024l.005-.002c4.239-1.342 8.477-2.683 12.727-4.03v-.004l.005-.002c-.005-2.716-.005-5.421-.005-8.121v-.002zm-7.053 1.871c-.556-.03-.885-.473-.796-1.138.093-.738.824-1.53 1.57-1.711.326-.078.602-.045.805.082a.75.75 0 01.036.024c.22.157.343.43.34.798-.01.829-.796 1.754-1.63 1.92a1.277 1.277 0 01-.325.025z"/></g><defs><clipPath id="clip0_123_1128"><path fill="#fff" d="M0 0h65v24H0z"/></clipPath></defs></svg>