<svg width="24" height="24" fill="none" xmlns="http://www.w3.org/2000/svg"><path fill-rule="evenodd" clip-rule="evenodd" d="M12.697 4.513l-.233-.013.013.03a.168.168 0 00.03.055l.11.151c.087.122.175.243.271.358a.51.51 0 01.117.359c-.002 4.053-.002 8.103-.002 12.156v.004c0 .8.294 1.47.904 2 .446.386.966.615 1.556.626.784.014 1.569.012 2.353.01l.84-.002a.264.264 0 00.058-.01l.036-.007-.015-.025a1.523 1.523 0 00-.047-.075c-.043-.057-.085-.116-.127-.174-.101-.139-.202-.278-.312-.412a.48.48 0 01-.11-.326l.001-9.796a4.273 4.273 0 00-.982-2.761c-.49-.607-1.109-1.068-1.8-1.433a6.295 6.295 0 00-2.661-.715zm-2.3.06a2.497 2.497 0 01-.003-.062l-.034.001a.782.782 0 00-.076.005 6.197 6.197 0 00-2.458.8C6.928 5.84 6.178 6.505 5.71 7.45c-.228.46-.394.944-.426 1.456-.036.552-.04 1.108-.03 1.662.017.85.28 1.632.755 2.337.435.64 1.014 1.129 1.669 1.532a6.245 6.245 0 002.881.91c.079.006.157.005.243.004l.12-.001c-.03-.043-.05-.07-.068-.098a25.868 25.868 0 00-.118-.158c-.09-.12-.18-.24-.264-.364a.4.4 0 01-.07-.21c-.002-3.29-.002-6.58-.002-9.87l-.003-.077z" fill="#AEAFB2"/></svg>