<svg width="83" height="86" fill="none" xmlns="http://www.w3.org/2000/svg"><path d="M76.69 45.831c0 8.94-4.482 17.06-11.244 22.958-6.763 5.899-15.773 9.542-24.756 9.542-17.949 0-32.5-14.55-32.5-32.5 0-17.997 14.597-35 32.5-35 8.96 0 17.965 4.25 24.738 10.776S76.69 36.885 76.69 45.831z" stroke="#E61661"/><path d="M41.19 75.331c-17.997 0-35-14.596-35-32.5 0-17.903 17.003-32.5 35-32.5 17.998 0 35 14.597 35 32.5 0 17.904-17.002 32.5-35 32.5z" stroke="#E61661"/><path d="M9.798 34.42C14.456 17.036 32.956 4.39 50.249 9.024c17.294 4.634 26.992 24.835 22.334 42.22-4.658 17.383-23.158 30.029-40.451 25.395C14.838 72.005 5.14 51.804 9.798 34.419z" stroke="#E61661"/></svg>