<svg width="39" height="24" fill="none" xmlns="http://www.w3.org/2000/svg"><path fill-rule="evenodd" clip-rule="evenodd" d="M19.081 23.735h2.331s.704-.08 1.064-.48c.33-.368.32-1.06.32-1.06s-.045-3.233 1.407-3.709c1.43-.469 3.268 3.125 5.216 4.507 1.473 1.046 2.592.817 2.592.817l5.209-.075s2.724-.174 1.432-2.388c-.105-.181-.752-1.638-3.872-4.632-3.266-3.133-2.828-2.627 1.105-8.047 2.396-3.3 3.354-5.316 3.055-6.18-.285-.821-2.047-.604-2.047-.604l-5.865.038s-.434-.061-.757.138c-.315.195-.518.65-.518.65s-.928 2.555-2.166 4.727c-2.61 4.584-3.655 4.826-4.082 4.541-.992-.663-.745-2.664-.745-4.086 0-4.443.652-6.295-1.269-6.774-.637-.16-1.106-.265-2.736-.281-2.093-.023-3.864.006-4.867.514-.667.338-1.181 1.09-.868 1.134.388.053 1.265.244 1.73.9.602.844.58 2.743.58 2.743s.346 5.229-.806 5.878c-.79.446-1.875-.464-4.203-4.622-1.192-2.13-2.093-4.485-2.093-4.485s-.174-.44-.483-.676c-.376-.285-.902-.376-.902-.376l-5.572.038s-.837.024-1.144.4C-.146 2.62.106 3.312.106 3.312s4.362 10.55 9.302 15.868c4.53 4.875 9.673 4.555 9.673 4.555z" fill="#BDBDBD"/></svg>